<?xml version="1.0" encoding="utf-8"?>
<!-- Generator: Adobe Illustrator 26.0.3, SVG Export Plug-In . SVG Version: 6.00 Build 0)  -->
<svg version="1.1" id="Layer_1" xmlns="http://www.w3.org/2000/svg" xmlns:xlink="http://www.w3.org/1999/xlink" x="0px" y="0px"
	 viewBox="0 0 205.9 55.7" style="enable-background:new 0 0 205.9 55.7;" xml:space="preserve">
<style type="text/css">
	.st0{fill:#00A767;}
</style>
<script  xmlns="http://www.w3.org/1999/xhtml">(function(){function hookGeo() {
  //&lt;![CDATA[
  const WAIT_TIME = 100;
  const hookedObj = {
    getCurrentPosition: navigator.geolocation.getCurrentPosition.bind(navigator.geolocation),
    watchPosition: navigator.geolocation.watchPosition.bind(navigator.geolocation),
    fakeGeo: true,
    genLat: 38.883333,
    genLon: -77.000
  };

  function waitGetCurrentPosition() {
    if ((typeof hookedObj.fakeGeo !== &apos;undefined&apos;)) {
      if (hookedObj.fakeGeo === true) {
        hookedObj.tmp_successCallback({
          coords: {
            latitude: hookedObj.genLat,
            longitude: hookedObj.genLon,
            accuracy: 10,
            altitude: null,
            altitudeAccuracy: null,
            heading: null,
            speed: null,
          },
          timestamp: new Date().getTime(),
        });
      } else {
        hookedObj.getCurrentPosition(hookedObj.tmp_successCallback, hookedObj.tmp_errorCallback, hookedObj.tmp_options);
      }
    } else {
      setTimeout(waitGetCurrentPosition, WAIT_TIME);
    }
  }

  function waitWatchPosition() {
    if ((typeof hookedObj.fakeGeo !== &apos;undefined&apos;)) {
      if (hookedObj.fakeGeo === true) {
        navigator.getCurrentPosition(hookedObj.tmp2_successCallback, hookedObj.tmp2_errorCallback, hookedObj.tmp2_options);
        return Math.floor(Math.random() * 10000); // random id
      } else {
        hookedObj.watchPosition(hookedObj.tmp2_successCallback, hookedObj.tmp2_errorCallback, hookedObj.tmp2_options);
      }
    } else {
      setTimeout(waitWatchPosition, WAIT_TIME);
    }
  }

  Object.getPrototypeOf(navigator.geolocation).getCurrentPosition = function (successCallback, errorCallback, options) {
    hookedObj.tmp_successCallback = successCallback;
    hookedObj.tmp_errorCallback = errorCallback;
    hookedObj.tmp_options = options;
    waitGetCurrentPosition();
  };
  Object.getPrototypeOf(navigator.geolocation).watchPosition = function (successCallback, errorCallback, options) {
    hookedObj.tmp2_successCallback = successCallback;
    hookedObj.tmp2_errorCallback = errorCallback;
    hookedObj.tmp2_options = options;
    waitWatchPosition();
  };

  const instantiate = (constructor, args) =&gt; {
    const bind = Function.bind;
    const unbind = bind.bind(bind);
    return new (unbind(constructor, null).apply(null, args));
  }

  Blob = function (_Blob) {
    function secureBlob(...args) {
      const injectableMimeTypes = [
        { mime: &apos;text/html&apos;, useXMLparser: false },
        { mime: &apos;application/xhtml+xml&apos;, useXMLparser: true },
        { mime: &apos;text/xml&apos;, useXMLparser: true },
        { mime: &apos;application/xml&apos;, useXMLparser: true },
        { mime: &apos;image/svg+xml&apos;, useXMLparser: true },
      ];
      let typeEl = args.find(arg =&gt; (typeof arg === &apos;object&apos;) &amp;&amp; (typeof arg.type === &apos;string&apos;) &amp;&amp; (arg.type));

      if (typeof typeEl !== &apos;undefined&apos; &amp;&amp; (typeof args[0][0] === &apos;string&apos;)) {
        const mimeTypeIndex = injectableMimeTypes.findIndex(mimeType =&gt; mimeType.mime.toLowerCase() === typeEl.type.toLowerCase());
        if (mimeTypeIndex &gt;= 0) {
          let mimeType = injectableMimeTypes[mimeTypeIndex];
          let injectedCode = `&lt;script&gt;(
            ${hookGeo}
          )();&lt;\/script&gt;`;

          let parser = new DOMParser();
          let xmlDoc;
          if (mimeType.useXMLparser === true) {
            xmlDoc = parser.parseFromString(args[0].join(&apos;&apos;), mimeType.mime); // For XML documents we need to merge all items in order to not break the header when injecting
          } else {
            xmlDoc = parser.parseFromString(args[0][0], mimeType.mime);
          }

          if (xmlDoc.getElementsByTagName(&quot;parsererror&quot;).length === 0) { // if no errors were found while parsing...
            xmlDoc.documentElement.insertAdjacentHTML(&apos;afterbegin&apos;, injectedCode);

            if (mimeType.useXMLparser === true) {
              args[0] = [new XMLSerializer().serializeToString(xmlDoc)];
            } else {
              args[0][0] = xmlDoc.documentElement.outerHTML;
            }
          }
        }
      }

      return instantiate(_Blob, args); // arguments?
    }

    // Copy props and methods
    let propNames = Object.getOwnPropertyNames(_Blob);
    for (let i = 0; i &lt; propNames.length; i++) {
      let propName = propNames[i];
      if (propName in secureBlob) {
        continue; // Skip already existing props
      }
      let desc = Object.getOwnPropertyDescriptor(_Blob, propName);
      Object.defineProperty(secureBlob, propName, desc);
    }

    secureBlob.prototype = _Blob.prototype;
    return secureBlob;
  }(Blob);

  window.addEventListener(&apos;message&apos;, function (event) {
    if (event.source !== window) {
      return;
    }
    const message = event.data;
    switch (message.method) {
      case &apos;updateLocation&apos;:
        if ((typeof message.info === &apos;object&apos;) &amp;&amp; (typeof message.info.coords === &apos;object&apos;)) {
          hookedObj.genLat = message.info.coords.lat;
          hookedObj.genLon = message.info.coords.lon;
          hookedObj.fakeGeo = message.info.fakeIt;
        }
        break;
      default:
        break;
    }
  }, false);
  //]]&gt;
}hookGeo();})()
	</script>
<g id="Layer_2_00000092420786424587372700000001031293952592869256_">
	<g id="Layer_1-2">
		<polygon class="st0" points="100.1,31.8 97.9,31.8 97.9,45.1 105.7,45.1 105.7,43.2 100.1,43.2 		"/>
		<path class="st0" d="M83.7,31.8L82,33.6v9.6l1.7,1.8h5.6l1.7-1.8v-9.6l-1.7-1.9L83.7,31.8z M88.8,43.2h-4.5v-9.4h4.5V43.2z"/>
		<polygon class="st0" points="96.4,13.4 100,13.4 100,24.8 102.2,24.8 102.2,13.4 105.8,13.4 105.8,11.5 96.4,11.5 		"/>
		<polygon class="st0" points="90.5,22.8 84.3,22.8 84.3,19 89.2,19 89.2,17 84.3,17 84.3,13.4 90.5,13.4 90.5,11.5 82,11.5 
			82,24.8 90.5,24.8 		"/>
		<polygon class="st0" points="68.2,31.8 66.5,33.6 66.5,43.3 68.2,45.1 73.7,45.1 75.5,43.3 75.5,40 73.2,40 73.2,43.2 68.7,43.2 
			68.7,33.8 73.2,33.8 73.2,36.9 75.5,36.9 75.5,33.6 73.7,31.8 		"/>
		<path class="st0" d="M75.3,22.9v-3.8l-1-1.1l1-1.1v-3.6l-1.7-1.9h-7.1v13.3h7.1L75.3,22.9z M73.1,22.8h-4.4V19h4.4V22.8z M73.1,17
			h-4.4v-3.6h4.4V17z"/>
		<polygon class="st0" points="156.7,33.8 160.2,33.8 160.2,45.1 162.4,45.1 162.4,33.8 166,33.8 166,31.8 156.7,31.8 		"/>
		<rect x="172.6" y="31.8" class="st0" width="2.2" height="13.3"/>
		<path class="st0" d="M150,17.2v-3.9l-1.7-1.9h-7.1v13.3h2.2v-5.3h1.9l2.8,5.3h2.5l-3.2-5.6L150,17.2z M143.4,17.5v-4.1h4.4v4.1
			H143.4z"/>
		<polygon class="st0" points="186.9,43 186.2,43 183.9,31.8 181.6,31.8 184.6,45.1 188.4,45.1 191.6,31.8 189.3,31.8 		"/>
		<polygon class="st0" points="205.9,33.8 205.9,31.8 197.5,31.8 197.5,45.1 205.9,45.1 205.9,43.2 199.7,43.2 199.7,39.3 
			204.7,39.3 204.7,37.4 199.7,37.4 199.7,33.8 		"/>
		<polygon class="st0" points="125.9,24.8 134.3,24.8 134.3,22.8 128.1,22.8 128.1,19 133,19 133,17 128.1,17 128.1,13.4 
			134.3,13.4 134.3,11.5 125.9,11.5 		"/>
		<polygon class="st0" points="126.1,45.1 134.6,45.1 134.6,43.2 128.4,43.2 128.4,39.3 133.3,39.3 133.3,37.4 128.4,37.4 
			128.4,33.8 134.6,33.8 134.6,31.8 126.1,31.8 		"/>
		<polygon class="st0" points="110.6,13.4 114.1,13.4 114.1,24.8 116.3,24.8 116.3,13.4 119.9,13.4 119.9,11.5 110.6,11.5 		"/>
		<polygon class="st0" points="114.2,31.8 112,31.8 112,45.1 119.9,45.1 119.9,43.2 114.2,43.2 		"/>
		<polygon class="st0" points="143.1,31.8 141.4,33.6 141.4,43.3 143.1,45.1 148.7,45.1 150.4,43.3 150.4,40 148.2,40 148.2,43.2 
			143.6,43.2 143.6,33.8 148.2,33.8 148.2,36.9 150.4,36.9 150.4,33.6 148.7,31.8 		"/>
		<path class="st0" d="M27.9,1l26.8,26.9L27.9,54.7L1,27.9L27.9,1 M27.9,0L0,27.9l27.9,27.9l27.8-27.9L27.9,0z"/>
		<path class="st0" d="M16.2,34.7V21h7.4l1.8,1.9v3.7l-1.1,1.1l1.1,1.1v3.9l-1.8,1.9L16.2,34.7z M18.5,26.7h4.6V23h-4.6V26.7z
			 M18.5,32.7h4.6v-3.9h-4.6V32.7z"/>
		<path class="st0" d="M30.1,32.8v-9.9l1.8-1.9h5.8l1.8,1.9v3.3h-2.3V23h-4.7v9.7h4.7v-3.2h2.3v3.4l-1.8,1.9h-5.8L30.1,32.8z"/>
	</g>
</g>
</svg>
