<?xml version="1.0" encoding="utf-8"?>
<!-- Generator: Adobe Illustrator 28.1.0, SVG Export Plug-In . SVG Version: 6.00 Build 0)  -->
<svg version="1.1" id="Layer_1" xmlns="http://www.w3.org/2000/svg" xmlns:xlink="http://www.w3.org/1999/xlink" x="0px" y="0px"
	 viewBox="0 0 171 32" style="enable-background:new 0 0 171 32;" xml:space="preserve">
<style type="text/css">
	.st0{fill:url(#SVGID_1_);}
	.st1{fill:url(#SVGID_00000148651510173422104090000014630991503319492995_);}
	.st2{fill:url(#SVGID_00000081650244763738567550000001502625895692570262_);}
	.st3{fill:#2F2F2F;}
	.st4{fill:#919191;}
</style>
<g>
	<g>
		<linearGradient id="SVGID_1_" gradientUnits="userSpaceOnUse" x1="10.5305" y1="20.9975" x2="19.5249" y2="12.899">
			<stop  offset="0" style="stop-color:#BED0F9"/>
			<stop  offset="1" style="stop-color:#0B49D1"/>
		</linearGradient>
		<path class="st0" d="M1.1,10.5l0.1,0.1l21.9,21c0.2,0.2,0.5,0.3,0.8,0.4c0.1,0,0.1,0,0.2,0l1.6,0h0c0.3,0,0.6,0,0.9-0.1l2.4-3.2
			l-1-1L5,5.7h0C4.6,5.1,4.3,4.4,4.3,3.6c0-2,1.6-3.6,3.6-3.6L7.3,0C5.8,0,4.4,0.8,3.7,2.1L3.1,3L1.6,5.7L1.2,6.4
			C0.4,7.7,0.4,9.2,1.1,10.5z"/>
		
			<linearGradient id="SVGID_00000131361884496307548410000008138356873563586741_" gradientUnits="userSpaceOnUse" x1="21.081" y1="13.3479" x2="33.914" y2="24.9027">
			<stop  offset="0" style="stop-color:#BED0F9"/>
			<stop  offset="1" style="stop-color:#0B49D1"/>
		</linearGradient>
		<path style="fill:url(#SVGID_00000131361884496307548410000008138356873563586741_);" d="M27.4,25.3c0.3,0.6,0.5,1.4,0.5,2.2
			c0,0.1,0,0.1,0,0.2c-0.1,2.3-1.9,4.1-4.1,4.3c0.1,0,0.1,0,0.2,0l1.6,0h0c0.3,0,0.6,0,0.9-0.1c1.1-0.3,2.1-1,2.7-2l0.5-0.9l1.5-2.7
			l0.4-0.7c0.7-1.3,0.7-2.8,0.1-4.1l-0.1-0.1l-2.1-3.9c-0.5-1-0.5-2.1,0-3.1l2.1-3.9l0.1-0.1c0.2-0.3,0.3-0.6,0.4-0.9c0,0,0,0,0,0
			c0.1-0.3,0.1-0.6,0.1-0.9v0c0-1.6-1.4-2.9-3-2.9H28l-0.3,0.5c0,0,0,0,0,0l-1.3,2.4v0l-3.2,5.8l0,0c-0.5,1-0.5,2.1,0,3.1L27.4,25.3
			C27.4,25.3,27.4,25.3,27.4,25.3C27.4,25.3,27.4,25.3,27.4,25.3z"/>
		
			<linearGradient id="SVGID_00000134928643523675623840000000152956014962558352_" gradientUnits="userSpaceOnUse" x1="10.759" y1="12.104" x2="26.0371" y2="-1.6524">
			<stop  offset="0" style="stop-color:#BED0F9"/>
			<stop  offset="1" style="stop-color:#0B49D1"/>
		</linearGradient>
		<path style="fill:url(#SVGID_00000134928643523675623840000000152956014962558352_);" d="M4.3,3.6c0,0.8,0.2,1.5,0.7,2.1h24.4
			c1.6,0,2.9,1.3,3,2.9c0-0.7-0.2-1.5-0.6-2.2l-0.4-0.7L29.8,3l-0.5-0.9C28.5,0.8,27.2,0,25.7,0L7.9,0C5.9,0,4.3,1.6,4.3,3.6z"/>
	</g>
	<g>
		<path class="st3" d="M49.7,18.6"/>
		<g>
			<path class="st3" d="M55.5,20.3L58,26h-3.7l-1.9-4.3c-0.5-1.1-1.6-1.9-2.9-1.9c0,0,0,0,0,0c-0.4,0-0.8,0.1-1.2,0.2
				c-0.4,0.2-0.7,0.4-1,0.7c-0.6,0.6-0.9,1.4-0.9,2.2V26h-3.4V23c0-1.8,0.7-3.4,1.9-4.6c1.2-1.2,2.9-1.9,4.6-1.9c0,0,0,0,0,0h2.2
				c2,0,3.7-1.6,3.7-3.7s-1.6-3.7-3.7-3.7h-8.8V5.7h8.8c3.9,0,7.1,3.2,7.1,7.1c0,2.8-1.6,5.2-4,6.4C55,19.5,55.3,19.9,55.5,20.3z"/>
		</g>
		<path class="st3" d="M71.8,26c-4.4,0-7.9-3.6-7.9-7.9V5.7h3.4v12.4c0,2.5,2,4.5,4.5,4.5c2.5,0,4.5-2,4.5-4.5V5.7h3.4v12.4
			C79.7,22.5,76.1,26,71.8,26z"/>
		<polygon class="st3" points="100,5.7 93.8,5.7 90.4,5.7 84.2,5.7 84.2,9.1 90.4,9.1 90.4,26 93.8,26 93.8,9.1 100,9.1 		"/>
		<path class="st3" d="M118.7,26H113c-5.6,0-10.2-4.6-10.2-10.2S107.4,5.7,113,5.7h5.7v3.4H113c-3.7,0-6.8,3-6.8,6.8s3,6.8,6.8,6.8
			h5.7V26z"/>
		<path class="st3" d="M117,17.6h-4.5c-0.9,0-1.7-0.8-1.7-1.7v0c0-0.9,0.8-1.7,1.7-1.7h4.5V17.6z"/>
	</g>
	<g>
		<path class="st4" d="M122.1,22.7h0.5V26h-0.5V22.7z"/>
		<path class="st4" d="M126.5,22.7V26h-0.4l-2-2.5V26h-0.5v-3.4h0.4l2,2.5v-2.5H126.5z"/>
		<path class="st4" d="M128.1,25.9c-0.3-0.2-0.5-0.4-0.6-0.6c-0.2-0.3-0.2-0.6-0.2-0.9c0-0.3,0.1-0.6,0.2-0.9
			c0.2-0.3,0.4-0.5,0.6-0.6c0.3-0.2,0.6-0.2,0.9-0.2c0.3,0,0.5,0,0.7,0.1c0.2,0.1,0.4,0.2,0.6,0.4l-0.3,0.3c-0.3-0.3-0.6-0.4-1-0.4
			c-0.3,0-0.5,0.1-0.7,0.2c-0.2,0.1-0.4,0.3-0.5,0.5c-0.1,0.2-0.2,0.4-0.2,0.7c0,0.2,0.1,0.5,0.2,0.7c0.1,0.2,0.3,0.4,0.5,0.5
			c0.2,0.1,0.4,0.2,0.7,0.2c0.4,0,0.7-0.1,1-0.4l0.3,0.3c-0.2,0.2-0.3,0.3-0.6,0.4c-0.2,0.1-0.5,0.1-0.7,0.1
			C128.7,26.1,128.4,26,128.1,25.9z"/>
	</g>
</g>
</svg>
